<?xml version="1.0" encoding="UTF-8"?>

<svg version="1.2" baseProfile="tiny" width="210mm" height="297mm" viewBox="0 0 21000 29700" preserveAspectRatio="xMidYMid" fill-rule="evenodd" stroke-width="28.222" stroke-linejoin="round" xmlns="http://www.w3.org/2000/svg" xmlns:ooo="http://xml.openoffice.org/svg/export" xmlns:xlink="http://www.w3.org/1999/xlink" xmlns:presentation="http://sun.com/xmlns/staroffice/presentation" xmlns:smil="http://www.w3.org/2001/SMIL20/" xmlns:anim="urn:oasis:names:tc:opendocument:xmlns:animation:1.0" xml:space="preserve">
 <defs class="ClipPathGroup">
  <clipPath id="presentation_clip_path" clipPathUnits="userSpaceOnUse">
   <rect x="0" y="0" width="21000" height="29700"/>
  </clipPath>
 </defs>
 <defs class="TextShapeIndex">
  <g ooo:slide="id1" ooo:id-list="id3 id4 id5 id6 id7 id8 id9 id10 id11 id12 id13 id14 id15 id16 id17 id18 id19 id20 id21 id22 id23 id24 id25 id26 id27 id28 id29 id30 id31 id32 id33 id34 id35 id36 id37 id38 id39 id40 id41 id42 id43 id44 id45 id46 id47 id48 id49 id50 id51 id52 id53 id54 id55 id56 id57 id58 id59 id60 id61 id62 id63 id64 id65 id66 id67 id68 id69 id70 id71 id72 id73 id74 id75 id76 id77 id78 id79"/>
 </defs>
 <defs class="EmbeddedBulletChars">
  <g id="bullet-char-template(57356)" transform="scale(0.00048828125,-0.00048828125)">
   <path d="M 580,1141 L 1163,571 580,0 -4,571 580,1141 Z"/>
  </g>
  <g id="bullet-char-template(57354)" transform="scale(0.00048828125,-0.00048828125)">
   <path d="M 8,1128 L 1137,1128 1137,0 8,0 8,1128 Z"/>
  </g>
  <g id="bullet-char-template(10146)" transform="scale(0.00048828125,-0.00048828125)">
   <path d="M 174,0 L 602,739 174,1481 1456,739 174,0 Z M 1358,739 L 309,1346 659,739 1358,739 Z"/>
  </g>
  <g id="bullet-char-template(10132)" transform="scale(0.00048828125,-0.00048828125)">
   <path d="M 2015,739 L 1276,0 717,0 1260,543 174,543 174,936 1260,936 717,1481 1274,1481 2015,739 Z"/>
  </g>
  <g id="bullet-char-template(10007)" transform="scale(0.00048828125,-0.00048828125)">
   <path d="M 0,-2 C -7,14 -16,27 -25,37 L 356,567 C 262,823 215,952 215,954 215,979 228,992 255,992 264,992 276,990 289,987 310,991 331,999 354,1012 L 381,999 492,748 772,1049 836,1024 860,1049 C 881,1039 901,1025 922,1006 886,937 835,863 770,784 769,783 710,716 594,584 L 774,223 C 774,196 753,168 711,139 L 727,119 C 717,90 699,76 672,76 641,76 570,178 457,381 L 164,-76 C 142,-110 111,-127 72,-127 30,-127 9,-110 8,-76 1,-67 -2,-52 -2,-32 -2,-23 -1,-13 0,-2 Z"/>
  </g>
  <g id="bullet-char-template(10004)" transform="scale(0.00048828125,-0.00048828125)">
   <path d="M 285,-33 C 182,-33 111,30 74,156 52,228 41,333 41,471 41,549 55,616 82,672 116,743 169,778 240,778 293,778 328,747 346,684 L 369,508 C 377,444 397,411 428,410 L 1163,1116 C 1174,1127 1196,1133 1229,1133 1271,1133 1292,1118 1292,1087 L 1292,965 C 1292,929 1282,901 1262,881 L 442,47 C 390,-6 338,-33 285,-33 Z"/>
  </g>
  <g id="bullet-char-template(9679)" transform="scale(0.00048828125,-0.00048828125)">
   <path d="M 813,0 C 632,0 489,54 383,161 276,268 223,411 223,592 223,773 276,916 383,1023 489,1130 632,1184 813,1184 992,1184 1136,1130 1245,1023 1353,916 1407,772 1407,592 1407,412 1353,268 1245,161 1136,54 992,0 813,0 Z"/>
  </g>
  <g id="bullet-char-template(8226)" transform="scale(0.00048828125,-0.00048828125)">
   <path d="M 346,457 C 273,457 209,483 155,535 101,586 74,649 74,723 74,796 101,859 155,911 209,963 273,989 346,989 419,989 480,963 531,910 582,859 608,796 608,723 608,648 583,586 532,535 482,483 420,457 346,457 Z"/>
  </g>
  <g id="bullet-char-template(8211)" transform="scale(0.00048828125,-0.00048828125)">
   <path d="M -4,459 L 1135,459 1135,606 -4,606 -4,459 Z"/>
  </g>
 </defs>
 <defs class="TextEmbeddedBitmaps"/>
 <g>
  <g id="id2" class="Master_Slide">
   <g id="bg-id2" class="Background"/>
   <g id="bo-id2" class="BackgroundObjects"/>
  </g>
 </g>
 <g class="SlideGroup">
  <g>
   <g id="id1" class="Slide" clip-path="url(#presentation_clip_path)">
    <g class="Page">
     <g class="Group">
      <g class="Group">
       <g class="com.sun.star.drawing.ClosedBezierShape">
        <g id="id3">
         <rect class="BoundingBox" stroke="none" fill="none" x="5288" y="16196" width="7975" height="656"/>
         <path fill="rgb(27,25,24)" stroke="none" d="M 5660,16268 C 5699,16261 5736,16261 5769,16267 5803,16274 5831,16285 5853,16301 5876,16317 5893,16338 5905,16364 5917,16389 5923,16416 5922,16445 5922,16485 5909,16525 5883,16563 5857,16601 5806,16621 5730,16624 5709,16625 5686,16624 5660,16621 L 5660,16624 5660,16636 C 5660,16641 5660,16645 5661,16648 5662,16658 5671,16663 5686,16663 L 5718,16663 5718,16693 5491,16693 5491,16663 5524,16663 C 5539,16663 5548,16658 5549,16648 5550,16645 5550,16641 5550,16636 L 5550,16624 5550,16621 C 5524,16624 5500,16625 5480,16624 5404,16621 5352,16601 5326,16563 5300,16525 5288,16486 5288,16445 5288,16415 5293,16388 5305,16363 5317,16338 5334,16317 5357,16301 5380,16284 5408,16273 5441,16267 5475,16260 5511,16261 5550,16268 L 5550,16265 5550,16253 C 5550,16248 5550,16244 5549,16241 5548,16230 5539,16225 5524,16225 L 5491,16225 5491,16196 5718,16196 5718,16225 5686,16225 C 5671,16225 5662,16230 5661,16241 5660,16244 5660,16248 5660,16253 L 5660,16268 Z M 5660,16268 L 5660,16268 Z M 5660,16593 C 5679,16597 5697,16598 5715,16594 5732,16591 5748,16583 5763,16571 5778,16558 5789,16541 5798,16519 5806,16497 5810,16470 5808,16439 5807,16396 5798,16364 5782,16341 5766,16319 5747,16305 5725,16299 5703,16294 5681,16292 5660,16293 L 5660,16593 Z M 5660,16593 L 5660,16593 Z M 5550,16593 L 5550,16293 C 5529,16292 5507,16294 5485,16299 5463,16305 5444,16319 5428,16341 5412,16364 5403,16396 5401,16439 5400,16482 5407,16517 5422,16541 5437,16566 5456,16582 5480,16589 5503,16597 5527,16598 5550,16593 Z M 5550,16593 L 5550,16593 Z M 6281,16633 L 6301,16641 C 6296,16657 6287,16671 6275,16682 6263,16695 6248,16700 6229,16700 6199,16700 6178,16684 6167,16654 6131,16685 6094,16700 6056,16697 6030,16696 6010,16686 5995,16671 5980,16655 5973,16638 5973,16618 5972,16579 5990,16552 6025,16535 6060,16519 6107,16504 6165,16492 L 6165,16443 C 6165,16441 6164,16440 6164,16439 6164,16438 6164,16437 6163,16435 6163,16432 6163,16429 6163,16426 6162,16424 6162,16421 6161,16418 6159,16409 6152,16400 6142,16393 6133,16385 6122,16382 6110,16382 6096,16382 6087,16384 6084,16390 6081,16396 6080,16403 6081,16410 6082,16412 6082,16415 6083,16419 6083,16422 6083,16425 6083,16429 6085,16443 6081,16454 6072,16462 6063,16470 6051,16474 6038,16474 6024,16474 6012,16470 6005,16461 5997,16452 5993,16441 5993,16430 5993,16412 6001,16395 6018,16380 6035,16364 6066,16355 6110,16354 6167,16352 6205,16365 6223,16390 6241,16415 6250,16439 6250,16462 L 6250,16633 C 6250,16639 6251,16644 6252,16647 6253,16651 6256,16653 6260,16653 6268,16653 6275,16646 6281,16633 Z M 6281,16633 L 6281,16633 Z M 6165,16517 C 6140,16521 6117,16531 6098,16549 6079,16567 6071,16588 6073,16613 6074,16638 6087,16652 6110,16654 6119,16655 6128,16653 6139,16647 6150,16642 6158,16636 6165,16628 L 6165,16517 Z M 6165,16517 L 6165,16517 Z M 6453,16506 C 6464,16507 6474,16507 6481,16505 6489,16503 6495,16500 6499,16495 6504,16489 6509,16480 6515,16467 6529,16435 6538,16414 6543,16405 6552,16389 6562,16377 6572,16368 6582,16358 6597,16354 6617,16354 6634,16354 6647,16361 6657,16371 6667,16381 6671,16393 6671,16407 6671,16420 6666,16431 6658,16438 6649,16444 6639,16448 6628,16448 6616,16447 6606,16443 6598,16435 6591,16426 6587,16416 6588,16402 6588,16401 6588,16400 6589,16399 6589,16398 6589,16397 6589,16396 L 6589,16392 6589,16388 C 6586,16387 6583,16394 6580,16408 6577,16419 6574,16427 6572,16433 6557,16479 6534,16507 6503,16516 L 6503,16517 C 6524,16517 6545,16524 6566,16538 6587,16551 6602,16567 6612,16586 6615,16592 6618,16600 6622,16610 6626,16617 6628,16623 6630,16629 6631,16630 6632,16633 6633,16636 6633,16640 6635,16643 6636,16646 6639,16653 6642,16656 6647,16656 6654,16656 6658,16651 6659,16640 L 6679,16640 C 6679,16657 6674,16671 6662,16683 6650,16695 6635,16700 6616,16700 6596,16700 6580,16694 6567,16680 6554,16667 6544,16652 6537,16635 6530,16618 6521,16594 6511,16564 6509,16560 6507,16556 6506,16552 6504,16548 6502,16545 6500,16540 6491,16528 6475,16525 6453,16529 L 6453,16649 C 6453,16656 6454,16661 6455,16664 6457,16667 6462,16669 6472,16669 L 6492,16669 6492,16693 6327,16693 6327,16669 6348,16669 C 6357,16669 6362,16667 6364,16664 6366,16661 6366,16656 6366,16649 L 6366,16407 C 6366,16399 6366,16394 6364,16391 6362,16388 6357,16387 6348,16387 L 6327,16387 6327,16363 6492,16363 6492,16387 6472,16387 C 6462,16387 6457,16388 6455,16391 6454,16394 6453,16399 6453,16407 L 6453,16506 Z M 6453,16506 L 6453,16506 Z M 6931,16606 L 6962,16515 C 6963,16513 6963,16511 6964,16509 6965,16507 6966,16505 6966,16503 6967,16501 6968,16499 6968,16498 6969,16494 6970,16492 6971,16489 6972,16486 6972,16483 6973,16480 6974,16478 6975,16475 6975,16472 6982,16453 6987,16435 6990,16418 6992,16404 6990,16395 6984,16392 6978,16389 6971,16387 6962,16387 L 6951,16387 6951,16363 7075,16363 7075,16387 7061,16387 C 7053,16387 7046,16390 7041,16397 7036,16404 7026,16426 7011,16465 6996,16503 6983,16534 6973,16557 L 6879,16779 C 6870,16801 6859,16818 6845,16831 6832,16845 6815,16851 6793,16851 6774,16851 6758,16846 6745,16834 6733,16823 6726,16810 6725,16794 6725,16780 6729,16768 6738,16759 6747,16750 6758,16745 6771,16744 6782,16744 6793,16748 6802,16756 6811,16764 6816,16774 6817,16787 6817,16795 6817,16800 6818,16801 6820,16809 6825,16812 6832,16809 6839,16809 6847,16800 6857,16782 6858,16779 6860,16774 6863,16768 6865,16762 6868,16757 6870,16753 6872,16748 6874,16743 6876,16738 6878,16733 6880,16728 6881,16724 6885,16717 6888,16710 6889,16703 L 6752,16410 C 6743,16392 6730,16384 6710,16387 L 6710,16363 6877,16363 6877,16387 6858,16387 C 6847,16387 6841,16392 6841,16401 6842,16403 6844,16406 6844,16410 L 6931,16606 Z M 6931,16606 L 6931,16606 Z M 7465,16363 L 7465,16387 7447,16387 C 7437,16387 7431,16388 7429,16391 7427,16394 7426,16399 7426,16407 L 7426,16649 C 7426,16656 7427,16661 7429,16664 7431,16667 7437,16669 7447,16669 L 7465,16669 7465,16693 7300,16693 7300,16669 7319,16669 C 7329,16669 7335,16667 7337,16664 7338,16661 7339,16656 7339,16649 L 7339,16410 C 7339,16396 7334,16390 7323,16390 L 7313,16390 C 7301,16390 7293,16398 7290,16415 7288,16424 7288,16430 7288,16431 7278,16491 7269,16539 7260,16575 7251,16611 7239,16641 7222,16664 7206,16689 7185,16700 7160,16700 7142,16700 7128,16695 7117,16684 7107,16675 7101,16663 7101,16650 7101,16638 7105,16628 7113,16619 7120,16609 7130,16605 7143,16604 7154,16603 7165,16606 7174,16613 7183,16620 7188,16629 7190,16641 7190,16644 7190,16646 7192,16646 7193,16648 7195,16649 7198,16649 7207,16649 7216,16632 7226,16599 7235,16566 7243,16530 7249,16491 7256,16452 7258,16426 7257,16414 7255,16396 7246,16387 7230,16387 L 7203,16387 7203,16363 7465,16363 Z M 7465,16363 L 7465,16363 Z M 7621,16485 C 7635,16482 7656,16480 7682,16480 7711,16481 7735,16486 7753,16496 7771,16507 7785,16519 7793,16535 7801,16551 7805,16568 7805,16586 7805,16616 7797,16639 7781,16655 7765,16671 7746,16682 7725,16688 7704,16693 7685,16695 7668,16695 7663,16695 7658,16694 7652,16694 7646,16693 7642,16693 7638,16693 L 7621,16693 7496,16693 7496,16669 7516,16669 C 7525,16669 7530,16667 7532,16664 7534,16661 7534,16656 7534,16649 L 7534,16407 C 7534,16399 7534,16394 7532,16391 7530,16388 7525,16387 7516,16387 L 7496,16387 7496,16363 7660,16363 7660,16387 7640,16387 C 7631,16387 7625,16388 7623,16391 7622,16394 7621,16399 7621,16407 L 7621,16485 Z M 7621,16485 L 7621,16485 Z M 7621,16649 L 7621,16651 C 7625,16661 7633,16667 7646,16668 7663,16668 7677,16662 7688,16649 7700,16636 7705,16615 7705,16585 7705,16552 7696,16530 7678,16520 7660,16509 7641,16506 7621,16512 L 7621,16649 Z M 7621,16649 L 7621,16649 Z M 7986,16363 L 8130,16363 8130,16460 8103,16460 8103,16440 C 8103,16433 8099,16425 8091,16417 8083,16408 8074,16401 8063,16396 8052,16390 8044,16388 8040,16388 8033,16388 8029,16393 8029,16401 L 8029,16649 C 8029,16656 8030,16661 8032,16664 8034,16667 8040,16669 8049,16669 L 8067,16669 8067,16693 7903,16693 7903,16669 7923,16669 C 7932,16669 7938,16667 7940,16664 7942,16661 7943,16656 7943,16649 L 7943,16401 C 7943,16393 7940,16388 7933,16388 7923,16387 7909,16393 7893,16405 7876,16418 7868,16429 7868,16440 L 7868,16460 7843,16460 7843,16363 7986,16363 Z M 7986,16363 L 7986,16363 Z M 8472,16506 L 8269,16506 C 8267,16536 8268,16562 8272,16584 8276,16607 8285,16626 8298,16640 8312,16655 8331,16662 8356,16662 8391,16662 8424,16642 8454,16602 L 8473,16615 C 8440,16671 8392,16700 8329,16700 8285,16700 8248,16685 8216,16655 8185,16626 8169,16585 8169,16534 8169,16500 8176,16470 8189,16443 8203,16415 8222,16394 8248,16378 8273,16363 8301,16354 8332,16354 8372,16354 8405,16367 8432,16392 8458,16417 8472,16455 8472,16506 Z M 8472,16506 L 8472,16506 Z M 8379,16482 C 8381,16451 8377,16426 8369,16407 8361,16388 8348,16378 8328,16378 8293,16378 8274,16413 8269,16482 L 8379,16482 Z M 8379,16482 L 8379,16482 Z M 8656,16363 L 8800,16363 8800,16460 8773,16460 8773,16440 C 8773,16433 8769,16425 8761,16417 8753,16408 8743,16401 8733,16396 8722,16390 8714,16388 8710,16388 8703,16388 8699,16393 8699,16401 L 8699,16649 C 8699,16656 8700,16661 8702,16664 8704,16667 8709,16669 8719,16669 L 8737,16669 8737,16693 8573,16693 8573,16669 8592,16669 C 8602,16669 8608,16667 8610,16664 8612,16661 8613,16656 8613,16649 L 8613,16401 C 8613,16393 8610,16388 8603,16388 8592,16387 8579,16393 8563,16405 8546,16418 8538,16429 8538,16440 L 8538,16460 8513,16460 8513,16363 8656,16363 Z M 8656,16363 L 8656,16363 Z M 9118,16581 L 9146,16589 C 9140,16609 9130,16627 9118,16644 9105,16661 9089,16675 9069,16685 9050,16696 9026,16701 8999,16700 8951,16698 8913,16681 8884,16651 8855,16622 8840,16583 8840,16536 8839,16502 8846,16471 8861,16444 8875,16416 8897,16394 8925,16378 8954,16362 8986,16353 9023,16354 9056,16355 9083,16364 9103,16380 9123,16395 9132,16413 9132,16433 9131,16448 9126,16460 9116,16468 9107,16477 9096,16481 9083,16482 9070,16483 9059,16479 9050,16472 9042,16465 9037,16456 9034,16445 9033,16439 9033,16432 9034,16425 9035,16422 9036,16418 9038,16413 9039,16412 9039,16410 9039,16409 9040,16408 9040,16406 9040,16405 9040,16400 9038,16395 9034,16390 9030,16385 9024,16382 9018,16382 8998,16378 8981,16389 8965,16414 8949,16438 8940,16477 8938,16530 8937,16580 8946,16614 8964,16633 8983,16651 9003,16661 9026,16662 9048,16662 9067,16654 9083,16638 9100,16622 9111,16603 9118,16581 Z M 9118,16581 L 9118,16581 Z M 9312,16506 C 9323,16507 9333,16507 9341,16505 9349,16503 9355,16500 9359,16495 9363,16489 9368,16480 9375,16467 9388,16435 9398,16414 9403,16405 9412,16389 9421,16377 9432,16368 9442,16358 9457,16354 9477,16354 9494,16354 9507,16361 9516,16371 9526,16381 9531,16393 9531,16407 9530,16420 9525,16431 9517,16438 9509,16444 9499,16448 9487,16448 9475,16447 9465,16443 9458,16435 9450,16426 9447,16416 9447,16402 9448,16401 9448,16400 9448,16399 9448,16398 9448,16397 9448,16396 L 9448,16392 9448,16388 C 9446,16387 9443,16394 9439,16408 9436,16419 9434,16427 9432,16433 9417,16479 9394,16507 9363,16516 L 9363,16517 C 9384,16517 9404,16524 9425,16538 9446,16551 9462,16567 9472,16586 9474,16592 9477,16600 9482,16610 9485,16617 9488,16623 9489,16629 9490,16630 9491,16633 9492,16636 9493,16640 9494,16643 9495,16646 9498,16653 9502,16656 9506,16656 9513,16656 9517,16651 9519,16640 L 9539,16640 C 9539,16657 9533,16671 9521,16683 9510,16695 9494,16700 9475,16700 9456,16700 9439,16694 9427,16680 9414,16667 9404,16652 9397,16635 9390,16618 9381,16594 9370,16564 9368,16560 9366,16556 9365,16552 9363,16548 9361,16545 9359,16540 9350,16528 9335,16525 9312,16529 L 9312,16649 C 9312,16656 9313,16661 9315,16664 9316,16667 9322,16669 9332,16669 L 9351,16669 9351,16693 9186,16693 9186,16669 9206,16669 C 9215,16669 9221,16667 9222,16664 9224,16661 9225,16656 9225,16649 L 9225,16407 C 9225,16399 9224,16394 9222,16391 9221,16388 9215,16387 9206,16387 L 9186,16387 9186,16363 9351,16363 9351,16387 9332,16387 C 9322,16387 9316,16388 9315,16391 9313,16394 9312,16399 9312,16407 L 9312,16506 Z M 9312,16506 L 9312,16506 Z M 9808,16474 L 9696,16626 9696,16649 C 9696,16656 9697,16661 9699,16664 9700,16667 9706,16669 9716,16669 L 9728,16669 9728,16693 9571,16693 9571,16669 9591,16669 C 9601,16669 9606,16667 9608,16664 9609,16661 9610,16656 9610,16649 L 9610,16407 C 9610,16399 9609,16394 9608,16391 9606,16388 9601,16387 9591,16387 L 9571,16387 9571,16363 9728,16363 9728,16387 9716,16387 C 9706,16387 9700,16388 9699,16391 9697,16394 9696,16399 9696,16407 L 9696,16589 9808,16437 9808,16407 C 9808,16399 9807,16394 9805,16391 9804,16388 9798,16387 9788,16387 L 9776,16387 9776,16363 9933,16363 9933,16387 9915,16387 C 9905,16387 9899,16388 9897,16392 9895,16395 9894,16400 9894,16407 L 9894,16649 C 9894,16656 9895,16661 9897,16664 9899,16667 9905,16669 9915,16669 L 9933,16669 9933,16693 9776,16693 9776,16669 9788,16669 C 9798,16669 9804,16667 9805,16664 9807,16661 9808,16656 9808,16649 L 9808,16474 Z M 9808,16474 L 9808,16474 Z M 10278,16506 L 10074,16506 C 10072,16536 10073,16562 10077,16584 10081,16607 10090,16626 10103,16640 10117,16655 10136,16662 10161,16662 10196,16662 10229,16642 10260,16602 L 10279,16615 C 10245,16671 10197,16700 10134,16700 10091,16700 10053,16685 10022,16655 9990,16626 9975,16585 9975,16534 9974,16500 9981,16470 9995,16443 10008,16415 10028,16394 10053,16378 10078,16363 10106,16354 10138,16354 10177,16354 10211,16367 10237,16392 10264,16417 10277,16455 10278,16506 Z M 10278,16506 L 10278,16506 Z M 10185,16482 C 10186,16451 10183,16426 10175,16407 10167,16388 10153,16378 10134,16378 10099,16378 10079,16413 10074,16482 L 10185,16482 Z M 10185,16482 L 10185,16482 Z M 10690,16506 C 10701,16507 10711,16507 10719,16505 10727,16503 10733,16500 10737,16495 10741,16489 10746,16480 10753,16467 10766,16435 10776,16414 10781,16405 10790,16389 10799,16377 10810,16368 10820,16358 10835,16354 10854,16354 10871,16354 10885,16361 10894,16371 10904,16381 10909,16393 10909,16407 10908,16420 10903,16431 10895,16438 10887,16444 10877,16448 10865,16448 10853,16447 10843,16443 10836,16435 10828,16426 10825,16416 10825,16402 10825,16401 10826,16400 10826,16399 10826,16398 10826,16397 10826,16396 L 10826,16392 10826,16388 C 10824,16387 10821,16394 10817,16408 10814,16419 10812,16427 10810,16433 10795,16479 10772,16507 10740,16516 L 10740,16517 C 10762,16517 10782,16524 10803,16538 10824,16551 10840,16567 10850,16586 10852,16592 10855,16600 10860,16610 10863,16617 10865,16623 10867,16629 10868,16630 10869,16633 10870,16636 10871,16640 10872,16643 10873,16646 10876,16653 10880,16656 10884,16656 10891,16656 10895,16651 10897,16640 L 10917,16640 C 10917,16657 10911,16671 10899,16683 10888,16695 10872,16700 10853,16700 10833,16700 10817,16694 10805,16680 10792,16667 10782,16652 10775,16635 10768,16618 10759,16594 10748,16564 10746,16560 10744,16556 10743,16552 10741,16548 10739,16545 10737,16540 10728,16528 10713,16525 10690,16529 L 10690,16649 C 10690,16656 10691,16661 10693,16664 10694,16667 10700,16669 10710,16669 L 10729,16669 10729,16693 10565,16693 10565,16669 10585,16669 C 10594,16669 10600,16667 10601,16664 10603,16661 10604,16656 10604,16649 L 10604,16407 C 10604,16399 10603,16394 10601,16391 10600,16388 10594,16387 10585,16387 L 10565,16387 10565,16363 10729,16363 10729,16387 10710,16387 C 10700,16387 10694,16388 10693,16391 10691,16394 10690,16399 10690,16407 L 10690,16506 Z M 10690,16506 L 10690,16506 Z M 11309,16363 L 11309,16387 11291,16387 C 11282,16387 11276,16388 11274,16391 11272,16394 11271,16399 11271,16407 L 11271,16649 C 11271,16656 11272,16661 11274,16664 11276,16667 11282,16669 11291,16669 L 11309,16669 11309,16693 11145,16693 11145,16669 11164,16669 C 11173,16669 11179,16667 11181,16664 11183,16661 11184,16656 11184,16649 L 11184,16410 C 11184,16396 11178,16390 11167,16390 L 11158,16390 C 11145,16390 11138,16398 11134,16415 11133,16424 11132,16430 11132,16431 11122,16491 11113,16539 11104,16575 11096,16611 11083,16641 11067,16664 11050,16689 11029,16700 11004,16700 10987,16700 10972,16695 10962,16684 10951,16675 10946,16663 10946,16650 10946,16638 10949,16628 10957,16619 10965,16609 10975,16605 10987,16604 10999,16603 11009,16606 11018,16613 11027,16620 11032,16629 11034,16641 11034,16644 11035,16646 11036,16646 11038,16648 11040,16649 11043,16649 11051,16649 11060,16632 11070,16599 11080,16566 11088,16530 11094,16491 11100,16452 11103,16426 11101,16414 11099,16396 11091,16387 11074,16387 L 11047,16387 11047,16363 11309,16363 Z M 11309,16363 L 11309,16363 Z M 11577,16474 L 11465,16626 11465,16649 C 11465,16656 11466,16661 11468,16664 11469,16667 11475,16669 11485,16669 L 11497,16669 11497,16693 11340,16693 11340,16669 11360,16669 C 11369,16669 11375,16667 11376,16664 11378,16661 11379,16656 11379,16649 L 11379,16407 C 11379,16399 11378,16394 11376,16391 11375,16388 11369,16387 11360,16387 L 11340,16387 11340,16363 11497,16363 11497,16387 11485,16387 C 11475,16387 11469,16388 11468,16391 11466,16394 11465,16399 11465,16407 L 11465,16589 11577,16437 11577,16407 C 11577,16399 11576,16394 11574,16391 11573,16388 11567,16387 11557,16387 L 11545,16387 11545,16363 11702,16363 11702,16387 11684,16387 C 11674,16387 11668,16388 11666,16392 11664,16395 11662,16400 11662,16407 L 11662,16649 C 11662,16656 11664,16661 11666,16664 11668,16667 11674,16669 11684,16669 L 11702,16669 11702,16693 11545,16693 11545,16669 11557,16669 C 11567,16669 11573,16667 11574,16664 11576,16661 11577,16656 11577,16649 L 11577,16474 Z M 11577,16474 L 11577,16474 Z M 11858,16516 L 11966,16516 11966,16407 C 11966,16400 11965,16395 11964,16392 11962,16388 11956,16387 11946,16387 L 11934,16387 11934,16363 12090,16363 12090,16387 12071,16387 C 12062,16387 12056,16388 12054,16391 12053,16394 12052,16399 12052,16407 L 12052,16649 C 12052,16656 12053,16661 12054,16664 12056,16667 12062,16669 12071,16669 L 12090,16669 12090,16693 11934,16693 11934,16669 11946,16669 C 11956,16669 11962,16667 11964,16664 11965,16661 11966,16656 11966,16649 L 11966,16539 11858,16539 11858,16649 C 11858,16656 11859,16661 11861,16664 11862,16667 11868,16669 11878,16669 L 11890,16669 11890,16693 11733,16693 11733,16669 11753,16669 C 11762,16669 11768,16667 11769,16664 11771,16661 11772,16656 11772,16649 L 11772,16407 C 11772,16399 11771,16394 11769,16391 11768,16388 11762,16387 11753,16387 L 11733,16387 11733,16363 11890,16363 11890,16387 11878,16387 C 11868,16387 11862,16388 11861,16391 11859,16394 11858,16399 11858,16407 L 11858,16516 Z M 11858,16516 L 11858,16516 Z M 12359,16474 L 12248,16626 12248,16649 C 12248,16656 12249,16661 12250,16664 12252,16667 12257,16669 12267,16669 L 12279,16669 12279,16693 12122,16693 12122,16669 12143,16669 C 12152,16669 12157,16667 12159,16664 12161,16661 12161,16656 12161,16649 L 12161,16407 C 12161,16399 12161,16394 12159,16391 12157,16388 12152,16387 12143,16387 L 12122,16387 12122,16363 12279,16363 12279,16387 12267,16387 C 12257,16387 12252,16388 12250,16391 12249,16394 12248,16399 12248,16407 L 12248,16589 12359,16437 12359,16407 C 12359,16399 12358,16394 12357,16391 12355,16388 12349,16387 12339,16387 L 12328,16387 12328,16363 12485,16363 12485,16387 12466,16387 C 12457,16387 12451,16388 12448,16392 12446,16395 12445,16400 12445,16407 L 12445,16649 C 12445,16656 12446,16661 12448,16664 12451,16667 12457,16669 12466,16669 L 12485,16669 12485,16693 12328,16693 12328,16669 12339,16669 C 12349,16669 12355,16667 12357,16664 12358,16661 12359,16656 12359,16649 L 12359,16474 Z M 12359,16474 L 12359,16474 Z M 12641,16506 C 12652,16507 12661,16507 12669,16505 12677,16503 12683,16500 12687,16495 12692,16489 12697,16480 12703,16467 12717,16435 12726,16414 12731,16405 12740,16389 12750,16377 12760,16368 12770,16358 12785,16354 12805,16354 12822,16354 12835,16361 12845,16371 12855,16381 12859,16393 12859,16407 12858,16420 12854,16431 12846,16438 12837,16444 12827,16448 12816,16448 12804,16447 12794,16443 12786,16435 12779,16426 12775,16416 12776,16402 12776,16401 12776,16400 12777,16399 12777,16398 12777,16397 12777,16396 L 12777,16392 12777,16388 C 12774,16387 12771,16394 12767,16408 12765,16419 12762,16427 12760,16433 12745,16479 12722,16507 12691,16516 L 12691,16517 C 12712,16517 12733,16524 12754,16538 12775,16551 12790,16567 12800,16586 12803,16592 12806,16600 12810,16610 12814,16617 12816,16623 12818,16629 12819,16630 12820,16633 12820,16636 12821,16640 12822,16643 12824,16646 12826,16653 12830,16656 12835,16656 12842,16656 12846,16651 12847,16640 L 12867,16640 C 12867,16657 12862,16671 12850,16683 12838,16695 12823,16700 12804,16700 12784,16700 12768,16694 12755,16680 12742,16667 12732,16652 12725,16635 12718,16618 12709,16594 12698,16564 12697,16560 12695,16556 12693,16552 12692,16548 12690,16545 12688,16540 12679,16528 12663,16525 12641,16529 L 12641,16649 C 12641,16656 12642,16661 12643,16664 12645,16667 12650,16669 12660,16669 L 12680,16669 12680,16693 12515,16693 12515,16669 12535,16669 C 12545,16669 12550,16667 12552,16664 12553,16661 12554,16656 12554,16649 L 12554,16407 C 12554,16399 12553,16394 12552,16391 12550,16388 12545,16387 12535,16387 L 12515,16387 12515,16363 12680,16363 12680,16387 12660,16387 C 12650,16387 12645,16388 12643,16391 12642,16394 12641,16399 12641,16407 L 12641,16506 Z M 12641,16506 L 12641,16506 Z M 13136,16474 L 13025,16626 13025,16649 C 13025,16656 13026,16661 13027,16664 13029,16667 13035,16669 13044,16669 L 13056,16669 13056,16693 12900,16693 12900,16669 12920,16669 C 12929,16669 12935,16667 12936,16664 12938,16661 12938,16656 12938,16649 L 12938,16407 C 12938,16399 12938,16394 12936,16391 12935,16388 12929,16387 12920,16387 L 12900,16387 12900,16363 13056,16363 13056,16387 13044,16387 C 13035,16387 13029,16388 13027,16391 13026,16394 13025,16399 13025,16407 L 13025,16589 13136,16437 13136,16407 C 13136,16399 13135,16394 13134,16391 13132,16388 13126,16387 13116,16387 L 13105,16387 13105,16363 13262,16363 13262,16387 13244,16387 C 13234,16387 13228,16388 13225,16392 13223,16395 13222,16400 13222,16407 L 13222,16649 C 13222,16656 13223,16661 13225,16664 13228,16667 13234,16669 13244,16669 L 13262,16669 13262,16693 13105,16693 13105,16669 13116,16669 C 13126,16669 13132,16667 13134,16664 13135,16661 13136,16656 13136,16649 L 13136,16474 Z"/>
        </g>
       </g>
       <g class="com.sun.star.drawing.ClosedBezierShape">
        <g id="id4">
         <rect class="BoundingBox" stroke="none" fill="none" x="13551" y="16196" width="2185" height="507"/>
         <path fill="rgb(27,25,24)" stroke="none" d="M 13719,16573 L 13923,16287 13923,16265 13923,16253 C 13923,16248 13922,16244 13921,16241 13920,16230 13911,16225 13896,16225 L 13864,16225 13864,16196 14091,16196 14091,16225 14059,16225 C 14043,16225 14035,16230 14033,16241 14032,16244 14032,16248 14032,16253 L 14032,16265 14032,16624 14032,16636 C 14032,16641 14032,16645 14033,16648 14035,16658 14043,16663 14059,16663 L 14091,16663 14091,16692 13864,16692 13864,16663 13896,16663 C 13911,16663 13920,16658 13921,16648 13922,16645 13923,16641 13923,16636 L 13923,16624 13923,16330 13719,16614 13719,16624 13719,16636 C 13719,16641 13719,16645 13720,16648 13721,16658 13730,16663 13746,16663 L 13777,16663 13777,16692 13551,16692 13551,16663 13583,16663 C 13598,16663 13607,16658 13608,16648 13609,16645 13610,16641 13610,16636 L 13610,16624 13610,16265 13610,16253 C 13610,16248 13609,16244 13608,16241 13607,16230 13598,16225 13583,16225 L 13551,16225 13551,16196 13777,16196 13777,16225 13746,16225 C 13730,16225 13721,16230 13720,16241 13719,16244 13719,16248 13719,16253 L 13719,16265 13719,16573 Z M 13719,16573 L 13719,16573 Z M 14504,16320 L 14475,16320 14475,16291 C 14474,16283 14465,16274 14449,16263 14432,16251 14412,16242 14390,16235 14368,16228 14347,16225 14329,16226 14315,16228 14308,16234 14308,16246 L 14308,16624 14308,16636 C 14308,16641 14309,16645 14310,16648 14311,16658 14319,16663 14335,16663 L 14367,16663 14367,16692 14140,16692 14140,16663 14172,16663 C 14188,16663 14196,16658 14198,16648 14198,16645 14199,16641 14199,16636 L 14199,16624 14199,16265 14199,16253 C 14199,16248 14198,16244 14198,16241 14196,16230 14188,16225 14172,16225 L 14140,16225 14140,16196 14501,16196 14504,16320 Z M 14504,16320 L 14504,16320 Z M 14871,16481 L 15013,16196 15181,16196 15181,16225 15149,16225 C 15134,16225 15125,16230 15124,16241 15123,16244 15123,16248 15123,16253 L 15123,16265 15123,16624 15123,16636 C 15123,16641 15123,16645 15124,16648 15125,16658 15134,16663 15149,16663 L 15181,16663 15181,16692 14954,16692 14954,16663 14986,16663 C 15002,16663 15011,16658 15012,16648 15013,16645 15013,16641 15013,16636 L 15013,16624 15013,16278 14849,16606 14822,16606 14648,16278 14648,16468 C 14648,16472 14649,16476 14649,16479 14649,16482 14649,16486 14649,16492 L 14649,16515 C 14650,16522 14650,16529 14650,16537 14651,16545 14651,16551 14651,16555 14653,16573 14654,16586 14655,16593 14660,16629 14668,16652 14678,16663 L 14685,16663 14709,16663 14709,16692 14558,16692 14558,16663 14582,16663 14588,16663 C 14603,16644 14613,16595 14617,16515 L 14617,16490 C 14618,16486 14618,16478 14618,16468 L 14618,16256 C 14618,16235 14611,16225 14597,16225 L 14558,16225 14558,16196 14713,16196 14871,16481 Z M 14871,16481 L 14871,16481 Z M 15530,16489 L 15564,16409 C 15572,16389 15582,16363 15592,16332 15603,16301 15608,16277 15609,16258 15609,16236 15602,16225 15589,16225 L 15552,16225 15552,16196 15735,16196 15735,16225 15711,16225 15703,16225 C 15688,16232 15673,16254 15656,16291 15656,16291 15653,16296 15649,16306 15644,16317 15641,16323 15640,16325 15639,16327 15635,16334 15629,16346 15629,16350 15628,16353 15627,16353 L 15517,16593 C 15498,16633 15479,16661 15457,16678 15436,16694 15409,16702 15377,16701 15346,16699 15321,16690 15304,16673 15287,16656 15279,16636 15279,16615 15279,16604 15281,16594 15286,16584 15292,16575 15299,16568 15307,16563 15316,16558 15327,16555 15340,16554 15354,16554 15365,16557 15374,16563 15383,16570 15390,16578 15394,16587 15398,16597 15400,16607 15399,16618 15399,16621 15399,16624 15399,16626 15399,16628 15399,16630 15398,16633 15398,16646 15403,16655 15416,16658 15425,16660 15436,16655 15446,16644 15457,16633 15467,16619 15475,16603 L 15413,16489 15302,16275 C 15298,16271 15296,16267 15296,16263 15294,16259 15292,16256 15290,16251 15287,16247 15286,16245 15285,16244 15282,16237 15277,16232 15272,16230 15268,16227 15264,16226 15260,16226 15257,16225 15253,16225 15249,16225 L 15245,16225 15224,16225 15224,16196 15463,16196 15463,16225 15434,16225 C 15412,16225 15401,16232 15403,16246 15403,16247 15404,16249 15405,16252 15406,16253 15406,16254 15407,16255 15407,16256 15408,16257 15409,16259 L 15530,16489 Z"/>
        </g>
       </g>
      </g>
      <g class="com.sun.star.drawing.ClosedBezierShape">
       <g id="id5">
        <rect class="BoundingBox" stroke="none" fill="none" x="6914" y="17010" width="7164" height="1332"/>
        <path fill="rgb(27,25,24)" stroke="none" d="M 10365,17215 C 10142,17152 9890,17141 9662,17156 9431,17171 9203,17210 8978,17260 9076,17325 9166,17421 9174,17542 9178,17608 9151,17676 9094,17711 9074,17723 9054,17731 9031,17731 8972,17731 8923,17683 8923,17622 8923,17562 8972,17513 9031,17513 9066,17513 9097,17530 9117,17555 9117,17552 9117,17549 9116,17546 9109,17425 8999,17333 8900,17278 8670,17332 8443,17395 8214,17452 8004,17503 7788,17551 7572,17569 7400,17584 6930,17601 6914,17359 6897,17084 7521,17036 7716,17024 8061,17002 8538,17021 8856,17163 9123,17093 9389,17038 9665,17016 9938,16997 10243,17028 10494,17144 10746,17028 11051,16997 11324,17016 11601,17038 11866,17093 12134,17163 12451,17021 12929,17002 13274,17024 13469,17036 14093,17084 14076,17359 14060,17601 13589,17584 13417,17569 13202,17551 12985,17503 12775,17452 12547,17395 12319,17332 12090,17278 11990,17333 11881,17425 11873,17546 11873,17551 11872,17556 11872,17561 11892,17532 11925,17513 11962,17513 12022,17513 12071,17562 12071,17622 12071,17683 12022,17731 11962,17731 11943,17731 11925,17726 11909,17717 11841,17693 11812,17609 11816,17542 11824,17421 11913,17325 12012,17260 11786,17210 11558,17171 11327,17156 11099,17141 10847,17152 10624,17215 10720,17278 10804,17358 10861,17458 10945,17433 11035,17424 11122,17430 11326,17442 11551,17559 11620,17762 11635,17807 11641,17855 11638,17902 11635,17950 11622,17996 11600,18039 11465,18295 11042,18354 10779,18337 10683,18331 10587,18312 10494,18281 10403,18312 10306,18331 10210,18337 10146,18341 10082,18341 10018,18337 9763,18319 9371,18213 9351,17902 9348,17855 9354,17807 9370,17762 9438,17559 9664,17442 9867,17430 9954,17424 10044,17433 10128,17458 10185,17358 10269,17278 10365,17215 Z M 10365,17215 L 10365,17215 Z M 12241,17201 C 12440,17256 12635,17322 12832,17383 13024,17441 13221,17495 13422,17512 13555,17524 14008,17544 14020,17356 14021,17339 14019,17323 14013,17308 13961,17178 13626,17136 13506,17118 13426,17106 13345,17095 13265,17082 L 13263,17082 C 12950,17030 12544,17082 12241,17201 Z M 12241,17201 L 12241,17201 Z M 10587,18244 C 10653,18261 10721,18271 10788,18276 10842,18279 10895,18280 10948,18277 11174,18266 11545,18184 11563,17901 11578,17674 11310,17581 11126,17569 11056,17564 10983,17566 10913,17575 10927,17621 10937,17669 10940,17719 L 10940,17721 C 10946,17813 10927,17903 10882,17984 10818,18102 10708,18188 10587,18244 Z M 10587,18244 L 10587,18244 Z M 10077,17575 C 10007,17566 9934,17564 9864,17569 9680,17581 9411,17674 9426,17901 9429,17947 9441,17990 9464,18029 9590,18248 9972,18291 10201,18276 10269,18271 10336,18261 10402,18244 10193,18147 10021,17968 10050,17720 L 10050,17718 C 10055,17669 10063,17621 10077,17575 Z M 10077,17575 L 10077,17575 Z M 10138,17586 C 10122,17629 10113,17675 10110,17723 10094,17970 10278,18136 10494,18216 10711,18136 10896,17970 10880,17723 10877,17675 10867,17629 10851,17586 10749,17608 10631,17658 10624,17778 10622,17799 10626,17820 10634,17839 10645,17791 10688,17755 10740,17755 10800,17755 10848,17803 10848,17863 10848,17916 10810,17960 10759,17970 10754,17971 10750,17971 10745,17971 10743,17971 10742,17972 10740,17972 10731,17972 10722,17970 10714,17968 10702,17966 10690,17963 10679,17958 10607,17929 10562,17853 10567,17776 10576,17633 10673,17535 10797,17481 10723,17377 10612,17307 10494,17259 10378,17307 10266,17377 10193,17481 10316,17535 10414,17633 10423,17776 10428,17853 10382,17929 10310,17958 10307,17959 10303,17960 10300,17962 10286,17968 10271,17972 10255,17972 10253,17972 10252,17972 10250,17971 10240,17971 10228,17971 10220,17965 10176,17950 10147,17910 10147,17863 10147,17803 10195,17755 10255,17755 10303,17755 10344,17786 10358,17830 10364,17813 10367,17796 10366,17778 10358,17658 10241,17608 10138,17586 Z M 10138,17586 L 10138,17586 Z M 8748,17201 C 8445,17083 8039,17033 7726,17082 L 7724,17082 C 7644,17095 7564,17105 7483,17117 7363,17134 7028,17177 6976,17308 6970,17323 6968,17339 6969,17356 6981,17544 7434,17524 7567,17512 7768,17495 7965,17441 8157,17383 8355,17322 8549,17256 8748,17201 Z"/>
       </g>
      </g>
      <g class="Group">
       <g class="com.sun.star.drawing.PolyPolygonShape">
        <g id="id6">
         <rect class="BoundingBox" stroke="none" fill="none" x="5139" y="11437" width="10737" height="2204"/>
         <path fill="rgb(27,25,24)" stroke="none" d="M 5139,13479 L 5376,12845 5677,13327 7504,12821 8027,11915 8505,12432 8707,12533 9358,12310 9515,12272 10562,11438 11565,12359 12290,12504 12966,11928 13472,12798 15181,13341 15567,12912 15875,13601 15835,13640 15565,13010 15194,13387 13445,12857 12958,12033 12296,12563 11545,12405 10554,11509 9528,12345 8706,12585 8511,12478 8058,12002 7550,12874 5670,13399 5381,12937 5191,13460 5139,13479 Z"/>
        </g>
       </g>
       <g class="com.sun.star.drawing.PolyPolygonShape">
        <g id="id7">
         <rect class="BoundingBox" stroke="none" fill="none" x="5339" y="13841" width="171" height="445"/>
         <path fill="rgb(27,25,24)" stroke="none" d="M 5344,13865 L 5509,13841 5490,14274 5339,14285 5344,13865 Z"/>
        </g>
       </g>
       <g class="com.sun.star.drawing.ClosedBezierShape">
        <g id="id8">
         <rect class="BoundingBox" stroke="none" fill="none" x="5825" y="12952" width="1779" height="712"/>
         <path fill="rgb(27,25,24)" stroke="none" d="M 7602,13070 L 7564,12952 5834,13413 5825,13662 5857,13650 5859,13545 C 5882,13489 5885,13542 5885,13571 L 5884,13656 5915,13636 5918,13526 C 5933,13490 5951,13504 5951,13533 L 5950,13641 5989,13627 5990,13507 C 6017,13471 6030,13485 6029,13520 L 6022,13621 6074,13610 6075,13501 C 6082,13444 6125,13481 6121,13521 L 6120,13610 6159,13594 6161,13475 C 6173,13447 6187,13444 6198,13475 L 6193,13593 6238,13588 6234,13473 C 6228,13420 6260,13437 6259,13469 L 6271,13579 6311,13569 6306,13437 C 6307,13390 6335,13430 6332,13457 L 6338,13569 6390,13557 6385,13431 C 6390,13391 6407,13399 6424,13425 L 6437,13546 6482,13532 6477,13406 C 6483,13358 6510,13379 6510,13413 L 6515,13525 6567,13513 6562,13387 C 6569,13329 6595,13363 6595,13407 L 6603,13495 6646,13480 6641,13369 C 6640,13326 6675,13301 6674,13382 L 6679,13494 6725,13468 6720,13337 C 6754,13265 6766,13338 6766,13376 L 6777,13481 6817,13462 6808,13330 C 6799,13291 6859,13277 6858,13332 L 6869,13463 6909,13443 6911,13293 C 6914,13256 6957,13252 6956,13313 L 6961,13444 7007,13425 7009,13287 C 7035,13197 7061,13281 7062,13281 L 7066,13425 7132,13400 7134,13249 C 7125,13202 7175,13195 7174,13250 L 7179,13400 7245,13388 7240,13218 C 7259,13174 7300,13164 7299,13231 L 7297,13369 7356,13350 7365,13186 C 7382,13140 7411,13154 7411,13200 L 7415,13344 7468,13331 7477,13168 C 7488,13132 7523,13092 7523,13155 L 7514,13325 7566,13306 7602,13070 Z"/>
        </g>
       </g>
       <g class="com.sun.star.drawing.PolyPolygonShape">
        <g id="id9">
         <rect class="BoundingBox" stroke="none" fill="none" x="5857" y="13768" width="126" height="494"/>
         <path fill="rgb(27,25,24)" stroke="none" d="M 5874,13795 L 5982,13768 5975,14253 5857,14260 5874,13795 Z"/>
        </g>
       </g>
       <g class="com.sun.star.drawing.PolyPolygonShape">
        <g id="id10">
         <rect class="BoundingBox" stroke="none" fill="none" x="6075" y="13724" width="126" height="494"/>
         <path fill="rgb(27,25,24)" stroke="none" d="M 6092,13751 L 6200,13724 6193,14209 6075,14216 6092,13751 Z"/>
        </g>
       </g>
       <g class="com.sun.star.drawing.PolyPolygonShape">
        <g id="id11">
         <rect class="BoundingBox" stroke="none" fill="none" x="6298" y="13682" width="126" height="494"/>
         <path fill="rgb(27,25,24)" stroke="none" d="M 6315,13709 L 6423,13682 6416,14167 6298,14174 6315,13709 Z"/>
        </g>
       </g>
       <g class="com.sun.star.drawing.PolyPolygonShape">
        <g id="id12">
         <rect class="BoundingBox" stroke="none" fill="none" x="6538" y="13637" width="126" height="513"/>
         <path fill="rgb(27,25,24)" stroke="none" d="M 6556,13666 L 6663,13638 6656,14142 6538,14149 6556,13666 Z"/>
        </g>
       </g>
       <g class="com.sun.star.drawing.PolyPolygonShape">
        <g id="id13">
         <rect class="BoundingBox" stroke="none" fill="none" x="6795" y="13598" width="126" height="513"/>
         <path fill="rgb(27,25,24)" stroke="none" d="M 6813,13627 L 6920,13599 6913,14103 6795,14110 6813,13627 Z"/>
        </g>
       </g>
       <g class="com.sun.star.drawing.PolyPolygonShape">
        <g id="id14">
         <rect class="BoundingBox" stroke="none" fill="none" x="7094" y="13543" width="146" height="512"/>
         <path fill="rgb(27,25,24)" stroke="none" d="M 7114,13572 L 7239,13544 7233,14047 7094,14054 7114,13572 Z"/>
        </g>
       </g>
       <g class="com.sun.star.drawing.PolyPolygonShape">
        <g id="id15">
         <rect class="BoundingBox" stroke="none" fill="none" x="7395" y="13501" width="146" height="529"/>
         <path fill="rgb(27,25,24)" stroke="none" d="M 7415,13530 L 7540,13501 7533,14022 7395,14029 7415,13530 Z"/>
        </g>
       </g>
       <g class="com.sun.star.drawing.PolyPolygonShape">
        <g id="id16">
         <rect class="BoundingBox" stroke="none" fill="none" x="5901" y="14326" width="32" height="80"/>
         <path fill="rgb(27,25,24)" stroke="none" d="M 5904,14330 L 5932,14326 5931,14404 5901,14405 5904,14330 Z"/>
        </g>
       </g>
       <g class="com.sun.star.drawing.PolyPolygonShape">
        <g id="id17">
         <rect class="BoundingBox" stroke="none" fill="none" x="6123" y="14302" width="33" height="80"/>
         <path fill="rgb(27,25,24)" stroke="none" d="M 6127,14306 L 6155,14302 6154,14380 6124,14381 6127,14306 Z"/>
        </g>
       </g>
       <g class="com.sun.star.drawing.PolyPolygonShape">
        <g id="id18">
         <rect class="BoundingBox" stroke="none" fill="none" x="6347" y="14280" width="32" height="80"/>
         <path fill="rgb(27,25,24)" stroke="none" d="M 6350,14284 L 6378,14280 6377,14358 6347,14359 6350,14284 Z"/>
        </g>
       </g>
       <g class="com.sun.star.drawing.PolyPolygonShape">
        <g id="id19">
         <rect class="BoundingBox" stroke="none" fill="none" x="6600" y="14246" width="32" height="80"/>
         <path fill="rgb(27,25,24)" stroke="none" d="M 6603,14250 L 6631,14246 6630,14324 6600,14325 6603,14250 Z"/>
        </g>
       </g>
       <g class="com.sun.star.drawing.PolyPolygonShape">
        <g id="id20">
         <rect class="BoundingBox" stroke="none" fill="none" x="6855" y="14226" width="32" height="80"/>
         <path fill="rgb(27,25,24)" stroke="none" d="M 6858,14230 L 6886,14226 6885,14304 6855,14305 6858,14230 Z"/>
        </g>
       </g>
       <g class="com.sun.star.drawing.PolyPolygonShape">
        <g id="id21">
         <rect class="BoundingBox" stroke="none" fill="none" x="7145" y="14206" width="33" height="80"/>
         <path fill="rgb(27,25,24)" stroke="none" d="M 7149,14210 L 7177,14206 7176,14284 7146,14285 7149,14210 Z"/>
        </g>
       </g>
       <g class="com.sun.star.drawing.PolyPolygonShape">
        <g id="id22">
         <rect class="BoundingBox" stroke="none" fill="none" x="7465" y="14179" width="32" height="81"/>
         <path fill="rgb(27,25,24)" stroke="none" d="M 7468,14184 L 7496,14180 7495,14258 7465,14259 7468,14184 Z"/>
        </g>
       </g>
       <g class="com.sun.star.drawing.PolyPolygonShape">
        <g id="id23">
         <rect class="BoundingBox" stroke="none" fill="none" x="7965" y="13358" width="326" height="597"/>
         <path fill="rgb(27,25,24)" stroke="none" d="M 7976,13385 L 8290,13358 8278,13939 7965,13953 7976,13385 Z M 7976,13385 L 7976,13385 Z M 8011,13448 L 8253,13426 8244,13873 8002,13884 8011,13448 Z"/>
        </g>
       </g>
       <g class="com.sun.star.drawing.PolyPolygonShape">
        <g id="id24">
         <rect class="BoundingBox" stroke="none" fill="none" x="8997" y="13208" width="327" height="659"/>
         <path fill="rgb(27,25,24)" stroke="none" d="M 9009,13238 L 9323,13208 9310,13851 8997,13866 9009,13238 Z M 9009,13238 L 9009,13238 Z M 9043,13307 L 9286,13284 9276,13778 9034,13790 9043,13307 Z"/>
        </g>
       </g>
       <g class="com.sun.star.drawing.ClosedBezierShape">
        <g id="id25">
         <rect class="BoundingBox" stroke="none" fill="none" x="7808" y="12139" width="632" height="926"/>
         <path fill="rgb(27,25,24)" stroke="none" d="M 7831,13064 L 7808,12618 8080,12139 8439,12522 8428,12929 8389,12925 8379,12627 C 8380,12613 8373,12593 8357,12593 8354,12607 8344,12588 8343,12640 L 8335,12784 8275,12783 8272,12497 C 8250,12425 8217,12431 8216,12484 L 8207,12675 8165,12668 8162,12336 C 8134,12272 8114,12308 8113,12355 L 8099,12683 8060,12683 8049,12498 C 8045,12489 8048,12492 8043,12488 8035,12489 8032,12487 8027,12489 8024,12503 8016,12518 8016,12537 L 7992,12846 7945,12849 7938,12675 C 7905,12633 7895,12701 7895,12724 L 7884,13054 7831,13064 Z"/>
        </g>
       </g>
       <g class="com.sun.star.drawing.PolyPolygonShape">
        <g id="id26">
         <rect class="BoundingBox" stroke="none" fill="none" x="8082" y="13139" width="74" height="84"/>
         <path fill="rgb(27,25,24)" stroke="none" d="M 8082,13221 L 8155,13218 8152,13139 8089,13144 8082,13221 Z"/>
        </g>
       </g>
       <g class="com.sun.star.drawing.ClosedBezierShape">
        <g id="id27">
         <rect class="BoundingBox" stroke="none" fill="none" x="8790" y="12481" width="722" height="572"/>
         <path fill="rgb(27,25,24)" stroke="none" d="M 8790,12647 L 9425,12481 9511,12645 9510,12743 9467,12740 C 9450,12752 9447,12788 9447,12809 L 9442,12940 9396,12933 9392,12769 C 9394,12716 9327,12723 9329,12761 L 9314,12955 9258,12961 9247,12778 C 9248,12752 9228,12747 9215,12752 9195,12759 9188,12786 9188,12803 L 9179,12980 9113,12992 9112,12819 C 9112,12803 9101,12791 9086,12787 9069,12783 9062,12811 9062,12818 L 9054,13005 8991,13021 8980,12847 C 8981,12798 8928,12796 8928,12846 L 8922,13043 8860,13052 8852,12859 C 8840,12840 8839,12839 8820,12839 8820,12846 8810,12853 8810,12878 L 8800,12888 8790,12647 Z"/>
        </g>
       </g>
       <g class="com.sun.star.drawing.ClosedBezierShape">
        <g id="id28">
         <rect class="BoundingBox" stroke="none" fill="none" x="9560" y="12218" width="379" height="364"/>
         <path fill="rgb(27,25,24)" stroke="none" d="M 9762,12219 L 9560,12390 9560,12581 9639,12565 C 9638,12557 9623,12448 9663,12471 9679,12481 9680,12523 9680,12540 L 9679,12569 9745,12563 9746,12478 C 9767,12434 9782,12499 9782,12521 L 9784,12564 9840,12564 9845,12476 C 9856,12469 9851,12471 9861,12471 9873,12487 9878,12504 9878,12522 L 9880,12568 9936,12562 9938,12387 9762,12219 Z"/>
        </g>
       </g>
       <g class="com.sun.star.drawing.ClosedBezierShape">
        <g id="id29">
         <rect class="BoundingBox" stroke="none" fill="none" x="9570" y="12607" width="323" height="270"/>
         <path fill="rgb(27,25,24)" stroke="none" d="M 9570,12636 L 9580,12876 9665,12874 9680,12703 C 9690,12673 9707,12609 9758,12653 9771,12665 9776,12706 9779,12710 L 9784,12862 9892,12870 9889,12607 9570,12613 9570,12636 Z"/>
        </g>
       </g>
       <g class="com.sun.star.drawing.PolyPolygonShape">
        <g id="id30">
         <rect class="BoundingBox" stroke="none" fill="none" x="10159" y="13113" width="776" height="744"/>
         <path fill="rgb(27,25,24)" stroke="none" d="M 10199,13113 L 10895,13125 10894,13248 10934,13281 10933,13315 10894,13342 10889,13855 10837,13855 10821,13811 10270,13818 10245,13856 10189,13856 10196,13336 10159,13311 10159,13279 10197,13258 10199,13113 Z M 10199,13113 L 10199,13113 Z M 10254,13179 L 10835,13191 10827,13754 10236,13769 10254,13179 Z"/>
        </g>
       </g>
       <g class="com.sun.star.drawing.ClosedBezierShape">
        <g id="id31">
         <rect class="BoundingBox" stroke="none" fill="none" x="8046" y="12742" width="168" height="290"/>
         <path fill="rgb(27,25,24)" stroke="none" d="M 8131,12742 C 8177,12742 8213,12807 8212,12887 8211,12967 8173,13031 8126,13031 8081,13030 8046,12965 8046,12885 8047,12805 8084,12742 8131,12742 Z M 8131,12742 L 8131,12742 Z M 8131,12768 C 8159,12768 8182,12821 8181,12887 8180,12952 8156,13005 8127,13004 8098,13004 8076,12951 8077,12885 8077,12820 8101,12767 8131,12768 Z"/>
        </g>
       </g>
       <g class="com.sun.star.drawing.PolyPolygonShape">
        <g id="id32">
         <rect class="BoundingBox" stroke="none" fill="none" x="9839" y="11568" width="1452" height="815"/>
         <path fill="rgb(27,25,24)" stroke="none" d="M 9839,12167 L 9984,12317 9994,12228 9924,12148 10557,11610 11205,12241 11127,12302 11126,12381 11290,12242 10564,11568 9839,12167 Z"/>
        </g>
       </g>
       <g class="com.sun.star.drawing.ClosedBezierShape">
        <g id="id33">
         <rect class="BoundingBox" stroke="none" fill="none" x="10038" y="11686" width="1027" height="1035"/>
         <path fill="rgb(27,25,24)" stroke="none" d="M 10038,12653 L 10103,12650 10110,12358 C 10110,12333 10111,12282 10140,12274 10186,12274 10175,12305 10184,12341 L 10188,12509 10264,12503 10281,12171 C 10290,12094 10359,12089 10366,12172 10366,12173 10368,12180 10369,12185 L 10371,12333 10456,12334 10459,12036 C 10460,11991 10488,11906 10552,11923 10564,11959 10576,11974 10580,12022 L 10562,12318 10671,12329 10679,12126 C 10679,12075 10755,12075 10774,12138 10777,12150 10782,12182 10783,12183 L 10776,12495 10861,12496 10883,12286 C 10890,12261 10923,12255 10939,12262 10964,12262 10974,12335 10977,12352 L 10976,12720 11058,12714 11064,12242 11009,12182 11013,12127 10941,12110 10929,12037 10867,12024 10858,11965 10782,11947 10774,11874 10702,11870 10689,11801 10634,11794 10628,11729 10582,11731 10570,11686 10545,11731 10496,11737 10485,11789 10433,11792 10422,11848 10353,11863 10340,11916 10277,11928 10270,11981 10208,11987 10197,12049 10142,12046 10131,12117 10075,12123 10081,12212 10041,12218 10038,12653 Z"/>
        </g>
       </g>
       <g class="com.sun.star.drawing.ClosedBezierShape">
        <g id="id34">
         <rect class="BoundingBox" stroke="none" fill="none" x="10319" y="12353" width="428" height="326"/>
         <path fill="rgb(27,25,24)" stroke="none" d="M 10321,12636 L 10373,12635 10385,12559 C 10386,12493 10461,12470 10492,12417 10501,12401 10498,12401 10498,12382 L 10499,12353 10556,12353 10557,12412 C 10566,12446 10604,12460 10635,12490 10657,12509 10674,12535 10677,12562 10679,12575 10689,12609 10688,12625 L 10745,12626 10746,12675 10319,12678 10321,12636 Z M 10321,12636 L 10321,12636 Z M 10427,12648 L 10624,12649 C 10642,12606 10610,12526 10531,12473 10509,12488 10401,12571 10427,12648 Z"/>
        </g>
       </g>
       <g class="com.sun.star.drawing.PolyPolygonShape">
        <g id="id35">
         <rect class="BoundingBox" stroke="none" fill="none" x="10070" y="13932" width="991" height="577"/>
         <path fill="rgb(27,25,24)" stroke="none" d="M 10070,14459 L 10178,14456 10481,14039 10489,13932 10663,13937 10672,14038 10971,14442 11060,14453 11056,14505 10941,14494 10613,14051 10610,13985 10544,13981 10536,14056 10220,14503 10072,14508 10070,14459 Z"/>
        </g>
       </g>
       <g class="com.sun.star.drawing.ClosedBezierShape">
        <g id="id36">
         <rect class="BoundingBox" stroke="none" fill="none" x="10099" y="14100" width="920" height="698"/>
         <path fill="rgb(27,25,24)" stroke="none" d="M 10099,14554 L 10105,14796 10354,14788 10354,14634 C 10353,14497 10565,14353 10580,14350 10658,14396 10792,14525 10791,14630 L 10791,14797 11017,14796 11016,14550 10899,14526 10896,14516 10583,14100 10256,14542 10099,14554 Z M 10099,14554 L 10099,14554 Z M 10914,14616 C 10934,14617 10950,14633 10950,14653 10949,14673 10933,14689 10913,14689 10893,14688 10877,14672 10878,14652 10878,14632 10894,14616 10914,14616 Z M 10914,14616 L 10914,14616 Z M 10569,14222 C 10589,14222 10604,14239 10604,14259 10604,14278 10588,14294 10568,14294 10547,14294 10531,14278 10531,14258 10531,14238 10548,14222 10569,14222 Z M 10569,14222 L 10569,14222 Z M 10225,14629 C 10245,14629 10261,14645 10261,14665 10261,14685 10244,14701 10224,14701 10204,14701 10189,14684 10189,14665 10189,14645 10205,14629 10225,14629 Z"/>
        </g>
       </g>
       <g class="com.sun.star.drawing.ClosedBezierShape">
        <g id="id37">
         <rect class="BoundingBox" stroke="none" fill="none" x="10410" y="14484" width="316" height="274"/>
         <path fill="rgb(27,25,24)" stroke="none" d="M 10410,14756 C 10423,14373 10728,14414 10724,14754 L 10410,14756 Z"/>
        </g>
       </g>
       <g class="com.sun.star.drawing.PolyPolygonShape">
        <g id="id38">
         <rect class="BoundingBox" stroke="none" fill="none" x="8093" y="14100" width="33" height="80"/>
         <path fill="rgb(27,25,24)" stroke="none" d="M 8097,14104 L 8125,14100 8124,14178 8094,14179 8097,14104 Z"/>
        </g>
       </g>
       <g class="com.sun.star.drawing.PolyPolygonShape">
        <g id="id39">
         <rect class="BoundingBox" stroke="none" fill="none" x="9140" y="14003" width="32" height="80"/>
         <path fill="rgb(27,25,24)" stroke="none" d="M 9143,14007 L 9171,14003 9170,14081 9140,14082 9143,14007 Z"/>
        </g>
       </g>
       <g class="com.sun.star.drawing.PolyPolygonShape">
        <g id="id40">
         <rect class="BoundingBox" stroke="none" fill="none" x="10164" y="14069" width="32" height="80"/>
         <path fill="rgb(27,25,24)" stroke="none" d="M 10167,14073 L 10195,14069 10194,14147 10164,14148 10167,14073 Z"/>
        </g>
       </g>
       <g class="com.sun.star.drawing.PolyPolygonShape">
        <g id="id41">
         <rect class="BoundingBox" stroke="none" fill="none" x="10954" y="14048" width="32" height="80"/>
         <path fill="rgb(27,25,24)" stroke="none" d="M 10957,14052 L 10985,14048 10984,14126 10954,14127 10957,14052 Z"/>
        </g>
       </g>
       <g class="com.sun.star.drawing.PolyPolygonShape">
        <g id="id42">
         <rect class="BoundingBox" stroke="none" fill="none" x="5426" y="12841" width="1267" height="444"/>
         <path fill="rgb(27,25,24)" stroke="none" d="M 5426,12841 L 6692,13018 5711,13284 5426,12841 Z"/>
        </g>
       </g>
       <g class="com.sun.star.drawing.PolyPolygonShape">
        <g id="id43">
         <rect class="BoundingBox" stroke="none" fill="none" x="8086" y="11909" width="1493" height="569"/>
         <path fill="rgb(27,25,24)" stroke="none" d="M 8087,11909 L 9578,12174 9493,12235 8722,12477 8569,12413 8087,11909 Z"/>
        </g>
       </g>
       <g class="com.sun.star.drawing.ClosedBezierShape">
        <g id="id44">
         <rect class="BoundingBox" stroke="none" fill="none" x="5125" y="12573" width="10684" height="2868"/>
         <path fill="rgb(27,25,24)" stroke="none" d="M 15806,15187 L 15805,15111 15807,15052 15804,15052 15785,13694 15545,13132 15341,13400 15347,15049 15304,15049 15308,13496 15259,13483 15248,14667 15194,14662 15195,14621 15149,14615 C 15149,14583 15147,14547 15112,14537 15053,14522 15057,14607 15057,14603 L 15018,14603 15018,14659 14979,14655 14980,14606 14934,14599 C 14934,14566 14933,14529 14898,14519 14839,14503 14842,14591 14842,14587 L 14803,14586 14803,14633 14747,14627 14748,14597 14702,14590 C 14702,14557 14700,14519 14665,14509 14606,14493 14610,14582 14610,14578 L 14571,14577 14571,14618 14483,14613 14484,14571 14438,14564 C 14438,14529 14437,14488 14401,14478 14343,14461 14346,14555 14346,14551 L 14307,14550 14307,14605 14234,14599 14235,14558 14189,14550 C 14189,14514 14188,14473 14152,14463 14094,14445 14097,14541 14097,14537 L 14058,14536 14058,14591 13951,14585 13952,14534 13906,14526 C 13906,14489 13904,14446 13869,14435 13810,14417 13814,14517 13814,14512 L 13775,14511 13775,14577 13633,14571 13634,14513 13588,14505 C 13588,14466 13587,14422 13551,14411 13493,14392 13496,14495 13496,14491 L 13457,14490 13457,14546 13418,14546 13382,12994 13304,12786 13247,12956 13269,14501 13125,14502 13124,14439 13019,14426 C 13018,14377 12998,14328 12920,14314 12790,14291 12797,14421 12797,14415 L 12710,14415 12710,14494 12562,14495 12559,12800 12486,12591 12352,12785 12352,12794 12360,15142 12314,15143 12303,12732 12254,12788 12243,14489 12053,14490 12055,14388 11953,14377 C 11953,14324 11950,14262 11872,14247 11742,14221 11749,14364 11749,14358 L 11662,14357 11663,14471 11386,14461 11406,12944 11426,12944 11158,12939 11139,15132 10998,15133 11002,14988 10807,14980 10806,15355 10981,15359 10982,15384 10813,15388 10811,15439 11137,15433 11373,15429 11455,15427 11462,15375 12647,15348 13528,15312 15800,15214 15802,15187 15806,15187 Z M 15806,15187 L 15806,15187 Z M 15438,15050 L 15437,14938 15486,14943 15486,14996 15656,14995 15657,14951 15709,14955 15709,15052 15438,15050 Z M 15438,15050 L 15438,15050 Z M 8465,12781 L 8539,12573 8671,12767 8671,12777 8643,15046 8689,15046 8721,12715 8769,12771 8765,14472 8955,14474 8954,14371 9056,14362 C 9057,14308 9060,14247 9139,14232 9269,14207 9260,14349 9260,14343 L 9347,14343 9346,14457 9623,14448 9616,12931 9596,12931 9864,12927 9863,15123 9871,15123 10123,15116 10118,14977 10313,14973 10315,15328 10137,15329 10137,15371 10313,15364 10315,15440 9540,15414 9534,15362 8764,15329 8685,15326 8685,15326 8640,15324 8639,15324 8520,15319 7721,15272 7570,15263 5599,15176 5524,15179 5524,15173 5223,15160 5223,15163 5125,15155 5197,13551 5393,13047 5656,13464 5655,15041 5700,15041 5709,13464 5758,13452 5759,14636 5813,14631 5813,14590 5859,14584 C 5859,14552 5861,14516 5896,14507 5955,14492 5950,14576 5950,14573 L 5990,14572 5989,14629 6028,14625 6027,14576 6073,14570 C 6074,14537 6075,14499 6111,14489 6169,14474 6165,14562 6165,14558 L 6204,14557 6204,14603 6260,14599 6260,14568 6306,14562 C 6306,14528 6308,14490 6343,14480 6402,14465 6398,14554 6398,14550 L 6437,14549 6436,14590 6524,14585 6524,14544 6570,14537 C 6570,14501 6572,14461 6607,14451 6666,14434 6662,14528 6662,14524 L 6701,14524 6700,14578 6773,14572 6773,14531 6819,14524 C 6819,14488 6821,14447 6856,14437 6915,14420 6911,14515 6911,14511 L 6950,14511 6949,14565 7057,14559 7056,14508 7102,14501 C 7103,14464 7104,14421 7140,14410 7199,14393 7194,14492 7194,14488 L 7234,14487 7233,14553 7374,14547 7374,14489 7420,14482 C 7421,14443 7422,14399 7458,14388 7517,14369 7512,14472 7512,14468 L 7551,14467 7551,14523 7590,14524 7632,12940 7719,12764 7775,12935 7739,14479 7884,14481 7884,14418 8008,14412 C 8008,14364 8011,14308 8090,14294 8220,14272 8212,14401 8212,14396 L 8299,14395 8298,14475 8446,14477 8465,12781 Z M 8465,12781 L 8465,12781 Z M 5226,15040 L 5527,15041 5530,14911 5481,14915 5480,14988 5310,14986 5310,14923 5230,14928 5226,15040 Z M 5226,15040 L 5226,15040 Z M 12558,15124 L 12564,15010 12712,15010 12712,15066 13127,15061 13127,14989 13276,14988 13272,15117 12558,15124 Z M 12558,15124 L 12558,15124 Z M 13426,15100 L 13425,14947 13459,14946 13455,15001 13625,15000 13630,14916 13776,14922 13773,15004 13943,15003 13947,14929 14059,14935 14056,15010 14226,15009 14231,14943 14308,14950 14305,15019 14475,15018 14479,14957 14572,14963 14568,15019 14739,15018 14743,14963 14801,14983 14801,15023 14971,15022 14976,14943 15019,14947 15015,15024 15186,15023 15190,14949 15245,14954 15242,15073 13452,15060 13432,15100 13426,15100 Z M 13426,15100 L 13426,15100 Z M 8448,15112 L 8440,14992 8291,14990 8288,15045 7874,15037 7877,14968 7728,14966 7726,15079 8448,15112 Z M 8448,15112 L 8448,15112 Z M 7576,15073 L 7579,14924 7546,14924 7547,14994 7376,14992 7375,14892 7228,14898 7229,14996 7059,14994 7057,14904 6945,14910 6946,15001 6775,14999 6774,14917 6696,14923 6697,15008 6526,15006 6525,14930 6432,14935 6433,15007 6263,15005 6261,14934 6200,14939 6200,15010 6030,15008 6029,14913 5985,14916 5986,15010 5816,15008 5814,14918 5759,14923 5759,15070 7576,15073 Z M 7576,15073 L 7576,15073 Z M 12239,15135 L 11433,15144 11377,15179 11379,14975 11664,14986 11665,15074 12043,15072 12044,15005 12239,15004 12239,15135 Z M 12239,15135 L 12239,15135 Z M 11970,14419 L 11735,14397 11733,14991 11969,14988 11970,14419 Z M 11970,14419 L 11970,14419 Z M 9626,15192 L 9625,14963 9340,14972 9339,15058 8961,15054 8960,14989 8764,14987 8764,15117 9512,15119 9544,15191 9626,15192 Z M 9626,15192 L 9626,15192 Z M 9039,14403 L 9274,14383 9271,14977 9035,14972 9039,14403 Z M 9039,14403 L 9039,14403 Z M 5845,14615 L 5951,14602 5948,14953 5842,14950 5845,14615 Z M 5845,14615 L 5845,14615 Z M 6061,14594 L 6167,14581 6165,14950 6058,14948 6061,14594 Z M 6061,14594 L 6061,14594 Z M 6294,14586 L 6400,14573 6397,14942 6291,14939 6294,14586 Z M 6294,14586 L 6294,14586 Z M 6560,14579 L 6666,14565 6663,14946 6557,14944 6560,14579 Z M 6560,14579 L 6560,14579 Z M 6804,14560 L 6910,14546 6907,14931 6801,14928 6804,14560 Z M 6804,14560 L 6804,14560 Z M 7091,14532 L 7197,14518 7194,14928 7088,14926 7091,14532 Z M 7091,14532 L 7091,14532 Z M 7412,14512 L 7518,14497 7515,14928 7409,14925 7412,14512 Z M 7412,14512 L 7412,14512 Z M 7990,14450 L 8226,14432 8223,14973 7977,14969 7990,14450 Z M 7990,14450 L 7990,14450 Z M 15162,14645 L 15056,14633 15056,14983 15162,14981 15162,14645 Z M 15162,14645 L 15162,14645 Z M 14946,14624 L 14840,14610 14839,14979 14946,14977 14946,14624 Z M 14946,14624 L 14946,14624 Z M 14713,14614 L 14607,14601 14607,14970 14713,14968 14713,14614 Z M 14713,14614 L 14713,14614 Z M 14447,14606 L 14341,14592 14337,14987 14443,14985 14447,14606 Z M 14447,14606 L 14447,14606 Z M 14203,14586 L 14097,14572 14097,14957 14203,14955 14203,14586 Z M 14203,14586 L 14203,14586 Z M 13917,14557 L 13811,14542 13810,14953 13917,14950 13917,14557 Z M 13917,14557 L 13917,14557 Z M 13596,14535 L 13490,14520 13489,14951 13596,14949 13596,14535 Z M 13596,14535 L 13596,14535 Z M 13018,14485 L 12783,14482 12781,14993 13027,14990 13018,14485 Z M 13018,14485 L 13018,14485 Z M 5309,14636 L 5308,14580 5354,14574 C 5355,14542 5356,14506 5392,14497 5451,14482 5446,14566 5446,14563 L 5486,14562 5485,14628 5537,14623 5564,13482 5564,13390 C 5537,13300 5530,13449 5528,13461 L 5499,13469 5495,13271 C 5492,13234 5463,13221 5462,13291 5462,13313 5462,13335 5461,13357 L 5428,13376 5417,13237 C 5409,13198 5384,13213 5383,13291 L 5381,13487 5348,13493 5343,13375 C 5334,13284 5323,13396 5323,13421 L 5314,13624 5268,13630 5238,14640 5309,14636 Z M 5309,14636 L 5309,14636 Z M 5344,14603 L 5450,14591 5448,14941 5341,14939 5344,14603 Z M 5344,14603 L 5344,14603 Z M 15698,14669 L 15699,14613 15627,14579 C 15627,14547 15626,14511 15590,14501 15532,14486 15535,14571 15535,14567 L 15452,14584 15452,14650 15400,14645 15396,13578 15397,13485 C 15425,13396 15431,13544 15433,13557 L 15462,13564 15467,13368 C 15471,13331 15500,13318 15500,13387 15500,13409 15506,13479 15506,13500 L 15539,13520 15546,13335 C 15554,13296 15578,13310 15579,13387 L 15593,13584 15630,13585 C 15613,13469 15658,13377 15677,13568 15683,13632 15686,13714 15688,13723 L 15729,13726 15733,14671 15698,14669 Z M 15698,14669 L 15698,14669 Z M 15637,14619 L 15531,14607 15519,14968 15625,14967 15637,14619 Z"/>
        </g>
       </g>
       <g class="com.sun.star.drawing.PolyPolygonShape">
        <g id="id45">
         <rect class="BoundingBox" stroke="none" fill="none" x="15505" y="13874" width="167" height="447"/>
         <path fill="rgb(27,25,24)" stroke="none" d="M 15669,13899 L 15505,13874 15519,14308 15671,14320 15669,13899 Z"/>
        </g>
       </g>
       <g class="com.sun.star.drawing.ClosedBezierShape">
        <g id="id46">
         <rect class="BoundingBox" stroke="none" fill="none" x="13420" y="12975" width="1772" height="719"/>
         <path fill="rgb(27,25,24)" stroke="none" d="M 13420,13093 L 13458,12975 15183,13444 15191,13693 15158,13680 15158,13575 C 15149,13515 15132,13572 15132,13601 L 15132,13686 15101,13676 15099,13556 C 15084,13519 15066,13534 15066,13562 L 15067,13671 15028,13666 15027,13536 C 15022,13488 14987,13514 14987,13550 L 14986,13664 14942,13648 14941,13530 C 14935,13474 14898,13506 14902,13545 L 14896,13648 14857,13637 14856,13505 C 14858,13476 14825,13469 14826,13502 L 14824,13628 14778,13616 14784,13485 C 14786,13438 14751,13460 14751,13492 L 14745,13617 14706,13597 14712,13466 C 14711,13424 14683,13458 14686,13486 L 14680,13597 14627,13584 14633,13460 C 14629,13419 14606,13416 14604,13455 L 14595,13578 14536,13559 14542,13434 C 14536,13386 14509,13407 14509,13441 L 14503,13552 14450,13540 14456,13415 C 14449,13350 14425,13419 14424,13435 L 14418,13523 14384,13522 14378,13396 C 14379,13353 14345,13328 14345,13409 L 14339,13521 14292,13495 14298,13364 C 14265,13290 14252,13365 14252,13403 L 14240,13508 14200,13489 C 14197,13434 14214,13325 14181,13320 14162,13324 14160,13341 14161,13358 L 14148,13489 14109,13470 14108,13318 C 14106,13295 14099,13292 14075,13292 14068,13314 14062,13294 14062,13339 L 14056,13470 14010,13450 14010,13312 C 13985,13222 13957,13306 13957,13306 L 13951,13451 13886,13425 13885,13273 C 13882,13267 13878,13252 13870,13249 13864,13237 13857,13241 13846,13241 13846,13252 13846,13263 13846,13274 L 13840,13425 13774,13412 13780,13241 C 13767,13211 13758,13209 13728,13209 13728,13213 13721,13231 13721,13255 L 13722,13393 13663,13374 13656,13209 C 13639,13163 13610,13177 13610,13223 L 13604,13368 13551,13355 13544,13190 C 13533,13154 13498,13115 13498,13177 L 13506,13349 13420,13316 13420,13093 Z"/>
        </g>
       </g>
       <g class="com.sun.star.drawing.PolyPolygonShape">
        <g id="id47">
         <rect class="BoundingBox" stroke="none" fill="none" x="15033" y="13798" width="122" height="494"/>
         <path fill="rgb(27,25,24)" stroke="none" d="M 15140,13826 L 15033,13798 15034,14283 15154,14291 15140,13826 Z"/>
        </g>
       </g>
       <g class="com.sun.star.drawing.PolyPolygonShape">
        <g id="id48">
         <rect class="BoundingBox" stroke="none" fill="none" x="14815" y="13753" width="123" height="494"/>
         <path fill="rgb(27,25,24)" stroke="none" d="M 14922,13781 L 14815,13753 14816,14238 14936,14246 14922,13781 Z"/>
        </g>
       </g>
       <g class="com.sun.star.drawing.PolyPolygonShape">
        <g id="id49">
         <rect class="BoundingBox" stroke="none" fill="none" x="14592" y="13710" width="123" height="494"/>
         <path fill="rgb(27,25,24)" stroke="none" d="M 14699,13738 L 14592,13710 14593,14195 14713,14203 14699,13738 Z"/>
        </g>
       </g>
       <g class="com.sun.star.drawing.PolyPolygonShape">
        <g id="id50">
         <rect class="BoundingBox" stroke="none" fill="none" x="14353" y="13664" width="122" height="512"/>
         <path fill="rgb(27,25,24)" stroke="none" d="M 14460,13693 L 14353,13664 14354,14167 14474,14175 14460,13693 Z"/>
        </g>
       </g>
       <g class="com.sun.star.drawing.PolyPolygonShape">
        <g id="id51">
         <rect class="BoundingBox" stroke="none" fill="none" x="14096" y="13625" width="122" height="512"/>
         <path fill="rgb(27,25,24)" stroke="none" d="M 14203,13654 L 14096,13625 14097,14128 14217,14136 14203,13654 Z"/>
        </g>
       </g>
       <g class="com.sun.star.drawing.PolyPolygonShape">
        <g id="id52">
         <rect class="BoundingBox" stroke="none" fill="none" x="13778" y="13568" width="141" height="512"/>
         <path fill="rgb(27,25,24)" stroke="none" d="M 13902,13597 L 13778,13568 13779,14071 13918,14079 13902,13597 Z"/>
        </g>
       </g>
       <g class="com.sun.star.drawing.PolyPolygonShape">
        <g id="id53">
         <rect class="BoundingBox" stroke="none" fill="none" x="13476" y="13524" width="142" height="530"/>
         <path fill="rgb(27,25,24)" stroke="none" d="M 13601,13554 L 13477,13524 13478,14045 13617,14053 13601,13554 Z"/>
        </g>
       </g>
       <g class="com.sun.star.drawing.PolyPolygonShape">
        <g id="id54">
         <rect class="BoundingBox" stroke="none" fill="none" x="15076" y="14357" width="33" height="80"/>
         <path fill="rgb(27,25,24)" stroke="none" d="M 15105,14361 L 15077,14357 15077,14435 15108,14436 15105,14361 Z"/>
        </g>
       </g>
       <g class="com.sun.star.drawing.PolyPolygonShape">
        <g id="id55">
         <rect class="BoundingBox" stroke="none" fill="none" x="14853" y="14331" width="33" height="80"/>
         <path fill="rgb(27,25,24)" stroke="none" d="M 14882,14335 L 14854,14331 14854,14409 14885,14410 14882,14335 Z"/>
        </g>
       </g>
       <g class="com.sun.star.drawing.PolyPolygonShape">
        <g id="id56">
         <rect class="BoundingBox" stroke="none" fill="none" x="14632" y="14308" width="32" height="80"/>
         <path fill="rgb(27,25,24)" stroke="none" d="M 14660,14312 L 14632,14308 14632,14386 14663,14387 14660,14312 Z"/>
        </g>
       </g>
       <g class="com.sun.star.drawing.PolyPolygonShape">
        <g id="id57">
         <rect class="BoundingBox" stroke="none" fill="none" x="14379" y="14273" width="32" height="80"/>
         <path fill="rgb(27,25,24)" stroke="none" d="M 14407,14277 L 14379,14273 14379,14351 14410,14352 14407,14277 Z"/>
        </g>
       </g>
       <g class="com.sun.star.drawing.PolyPolygonShape">
        <g id="id58">
         <rect class="BoundingBox" stroke="none" fill="none" x="14124" y="14252" width="32" height="80"/>
         <path fill="rgb(27,25,24)" stroke="none" d="M 14152,14256 L 14124,14252 14124,14330 14155,14331 14152,14256 Z"/>
        </g>
       </g>
       <g class="com.sun.star.drawing.PolyPolygonShape">
        <g id="id59">
         <rect class="BoundingBox" stroke="none" fill="none" x="13834" y="14231" width="32" height="80"/>
         <path fill="rgb(27,25,24)" stroke="none" d="M 13862,14235 L 13834,14231 13834,14309 13865,14310 13862,14235 Z"/>
        </g>
       </g>
       <g class="com.sun.star.drawing.PolyPolygonShape">
        <g id="id60">
         <rect class="BoundingBox" stroke="none" fill="none" x="13515" y="14203" width="32" height="80"/>
         <path fill="rgb(27,25,24)" stroke="none" d="M 13543,14207 L 13515,14203 13515,14281 13546,14282 13543,14207 Z"/>
        </g>
       </g>
       <g class="com.sun.star.drawing.PolyPolygonShape">
        <g id="id61">
         <rect class="BoundingBox" stroke="none" fill="none" x="12729" y="13377" width="321" height="598"/>
         <path fill="rgb(27,25,24)" stroke="none" d="M 13043,13406 L 12729,13377 12736,13959 13049,13974 13043,13406 Z M 13043,13406 L 13043,13406 Z M 13007,13468 L 12765,13445 12771,13894 13012,13905 13007,13468 Z"/>
        </g>
       </g>
       <g class="com.sun.star.drawing.PolyPolygonShape">
        <g id="id62">
         <rect class="BoundingBox" stroke="none" fill="none" x="11697" y="13223" width="321" height="660"/>
         <path fill="rgb(27,25,24)" stroke="none" d="M 12011,13255 L 11697,13223 11704,13865 12017,13882 12011,13255 Z M 12011,13255 L 12011,13255 Z M 11975,13324 L 11733,13299 11739,13792 11980,13805 11975,13324 Z"/>
        </g>
       </g>
       <g class="com.sun.star.drawing.ClosedBezierShape">
        <g id="id63">
         <rect class="BoundingBox" stroke="none" fill="none" x="12587" y="12159" width="631" height="927"/>
         <path fill="rgb(27,25,24)" stroke="none" d="M 13189,13085 L 13217,12639 12950,12159 12587,12540 12595,12947 12634,12944 12646,12646 C 12645,12632 12652,12612 12669,12612 12672,12626 12682,12607 12682,12659 L 12689,12803 12748,12802 12753,12517 C 12776,12445 12809,12450 12809,12503 L 12816,12694 12859,12687 12864,12355 C 12893,12292 12914,12328 12914,12375 L 12925,12703 12965,12703 12977,12519 C 12981,12509 12978,12512 12984,12508 12991,12510 12994,12507 12999,12509 13002,12524 13010,12538 13010,12558 L 13031,12866 13077,12869 13086,12696 C 13119,12653 13128,12722 13129,12745 L 13136,13075 13189,13085 Z"/>
        </g>
       </g>
       <g class="com.sun.star.drawing.PolyPolygonShape">
        <g id="id64">
         <rect class="BoundingBox" stroke="none" fill="none" x="12864" y="13159" width="74" height="85"/>
         <path fill="rgb(27,25,24)" stroke="none" d="M 12937,13242 L 12864,13239 12866,13159 12930,13165 12937,13242 Z"/>
        </g>
       </g>
       <g class="com.sun.star.drawing.ClosedBezierShape">
        <g id="id65">
         <rect class="BoundingBox" stroke="none" fill="none" x="11513" y="12495" width="722" height="575"/>
         <path fill="rgb(27,25,24)" stroke="none" d="M 12234,12664 L 11600,12495 11513,12659 11513,12757 11555,12753 C 11573,12766 11575,12802 11575,12823 L 11579,12954 11625,12947 11631,12783 C 11629,12730 11696,12738 11693,12776 L 11707,12970 11763,12976 11775,12792 C 11775,12767 11795,12762 11807,12767 11827,12775 11834,12801 11834,12818 L 11841,12995 11908,13008 11910,12834 C 11910,12819 11922,12806 11936,12803 11953,12799 11960,12826 11959,12834 L 11967,13021 12029,13037 12041,12863 C 12041,12815 12094,12812 12094,12863 L 12098,13059 12160,13069 12169,12875 C 12182,12856 12182,12856 12202,12856 12201,12863 12212,12869 12212,12895 L 12222,12905 12234,12664 Z"/>
        </g>
       </g>
       <g class="com.sun.star.drawing.ClosedBezierShape">
        <g id="id66">
         <rect class="BoundingBox" stroke="none" fill="none" x="11116" y="12272" width="352" height="324"/>
         <path fill="rgb(27,25,24)" stroke="none" d="M 11288,12273 L 11467,12404 11465,12595 11412,12587 C 11413,12578 11429,12470 11390,12493 11373,12503 11372,12544 11372,12561 L 11372,12591 11307,12585 C 11306,12564 11313,12497 11297,12486 11272,12469 11268,12570 11267,12585 L 11212,12585 C 11211,12565 11221,12491 11192,12492 11176,12522 11173,12556 11171,12589 L 11116,12587 11126,12442 11288,12273 Z"/>
        </g>
       </g>
       <g class="com.sun.star.drawing.ClosedBezierShape">
        <g id="id67">
         <rect class="BoundingBox" stroke="none" fill="none" x="11131" y="12618" width="325" height="272"/>
         <path fill="rgb(27,25,24)" stroke="none" d="M 11455,12648 L 11443,12889 11357,12886 11344,12715 C 11334,12685 11318,12621 11266,12665 11253,12676 11248,12717 11245,12722 L 11239,12873 11131,12880 11136,12618 11455,12626 11455,12648 Z"/>
        </g>
       </g>
       <g class="com.sun.star.drawing.ClosedBezierShape">
        <g id="id68">
         <rect class="BoundingBox" stroke="none" fill="none" x="12811" y="12762" width="168" height="290"/>
         <path fill="rgb(27,25,24)" stroke="none" d="M 12893,12762 C 12847,12762 12811,12826 12811,12907 12811,12987 12848,13051 12895,13051 12940,13050 12977,12986 12977,12905 12977,12826 12939,12762 12893,12762 Z M 12893,12762 L 12893,12762 Z M 12893,12788 C 12864,12788 12841,12841 12842,12907 12842,12972 12865,13025 12895,13024 12923,13024 12946,12971 12946,12905 12946,12840 12922,12788 12893,12788 Z"/>
        </g>
       </g>
       <g class="com.sun.star.drawing.PolyPolygonShape">
        <g id="id69">
         <rect class="BoundingBox" stroke="none" fill="none" x="12886" y="14120" width="32" height="80"/>
         <path fill="rgb(27,25,24)" stroke="none" d="M 12914,14124 L 12886,14120 12886,14198 12917,14199 12914,14124 Z"/>
        </g>
       </g>
       <g class="com.sun.star.drawing.PolyPolygonShape">
        <g id="id70">
         <rect class="BoundingBox" stroke="none" fill="none" x="11841" y="14018" width="32" height="80"/>
         <path fill="rgb(27,25,24)" stroke="none" d="M 11869,14022 L 11841,14018 11841,14096 11872,14097 11869,14022 Z"/>
        </g>
       </g>
       <g class="com.sun.star.drawing.PolyPolygonShape">
        <g id="id71">
         <rect class="BoundingBox" stroke="none" fill="none" x="14362" y="12899" width="1168" height="384"/>
         <path fill="rgb(27,25,24)" stroke="none" d="M 15529,12899 L 14362,13037 15166,13282 15529,12899 Z"/>
        </g>
       </g>
       <g class="com.sun.star.drawing.PolyPolygonShape">
        <g id="id72">
         <rect class="BoundingBox" stroke="none" fill="none" x="11429" y="11927" width="1462" height="549"/>
         <path fill="rgb(27,25,24)" stroke="none" d="M 12889,11927 L 11429,12187 11569,12323 12245,12475 12889,11927 Z"/>
        </g>
       </g>
       <g class="com.sun.star.drawing.PolyPolygonShape">
        <g id="id73">
         <rect class="BoundingBox" stroke="none" fill="none" x="10355" y="14833" width="400" height="619"/>
         <path fill="rgb(27,25,24)" stroke="none" d="M 10355,14834 L 10754,14844 10753,15449 10357,15451 10355,14834 Z"/>
        </g>
       </g>
       <g class="com.sun.star.drawing.PolyPolygonShape">
        <g id="id74">
         <rect class="BoundingBox" stroke="none" fill="none" x="10117" y="14822" width="205" height="121"/>
         <path fill="rgb(27,25,24)" stroke="none" d="M 10119,14822 L 10315,14822 10320,14942 10117,14939 10119,14822 Z"/>
        </g>
       </g>
       <g class="com.sun.star.drawing.PolyPolygonShape">
        <g id="id75">
         <rect class="BoundingBox" stroke="none" fill="none" x="10803" y="14830" width="204" height="121"/>
         <path fill="rgb(27,25,24)" stroke="none" d="M 10805,14830 L 11001,14830 11006,14950 10803,14947 10805,14830 Z"/>
        </g>
       </g>
       <g class="com.sun.star.drawing.PolyPolygonShape">
        <g id="id76">
         <rect class="BoundingBox" stroke="none" fill="none" x="9903" y="14728" width="166" height="121"/>
         <path fill="rgb(27,25,24)" stroke="none" d="M 9905,14728 L 10064,14728 10068,14848 9903,14846 9905,14728 Z"/>
        </g>
       </g>
       <g class="com.sun.star.drawing.PolyPolygonShape">
        <g id="id77">
         <rect class="BoundingBox" stroke="none" fill="none" x="11045" y="14722" width="78" height="121"/>
         <path fill="rgb(27,25,24)" stroke="none" d="M 11046,14723 L 11121,14722 11122,14842 11045,14841 11046,14723 Z"/>
        </g>
       </g>
       <g class="com.sun.star.drawing.PolyPolygonShape">
        <g id="id78">
         <rect class="BoundingBox" stroke="none" fill="none" x="9894" y="14517" width="166" height="52"/>
         <path fill="rgb(27,25,24)" stroke="none" d="M 9895,14517 L 10054,14517 10059,14567 9894,14565 9895,14517 Z"/>
        </g>
       </g>
       <g class="com.sun.star.drawing.PolyPolygonShape">
        <g id="id79">
         <rect class="BoundingBox" stroke="none" fill="none" x="11035" y="14520" width="88" height="52"/>
         <path fill="rgb(27,25,24)" stroke="none" d="M 11035,14520 L 11120,14520 11122,14570 11035,14569 11035,14520 Z"/>
        </g>
       </g>
      </g>
     </g>
    </g>
   </g>
  </g>
 </g>
</svg>